<svg xmlns="http://www.w3.org/2000/svg" fill="none" viewBox="0 0 780 500"><path stroke="#393939" stroke-width="30" d="M53.41 15h672.18C746.804 15 764 31.834 764 52.6v394.8c0 20.766-17.196 37.6-38.41 37.6H53.41C32.197 485 15 468.166 15 447.399V52.6C15 31.834 32.197 15 53.41 15Z"/><path fill="#393939" d="M292.51 439.881v-25.428c.148-2.133-.16-4.273-.904-6.277-.744-2.005-1.906-3.828-3.41-5.348-1.504-1.519-3.314-2.701-5.311-3.467-1.996-.765-4.133-1.095-6.267-.97-2.801-.183-5.6.388-8.105 1.656-2.505 1.267-4.624 3.183-6.135 5.549-1.378-2.295-3.349-4.175-5.706-5.443-2.357-1.268-5.012-1.877-7.686-1.762-2.331-.118-4.652.376-6.733 1.431-2.082 1.056-3.851 2.637-5.133 4.587v-5.001h-8.815v40.473h8.899v-22.419c-.197-1.387-.083-2.8.333-4.138.416-1.337 1.124-2.565 2.073-3.596.949-1.03 2.116-1.836 3.415-2.36 1.299-.525 2.698-.753 4.096-.67 5.849 0 8.815 3.814 8.815 10.679v22.504h8.9v-22.419c-.181-1.384-.057-2.791.365-4.122.422-1.33 1.131-2.552 2.077-3.579.945-1.027 2.105-1.833 3.397-2.362 1.292-.53 2.684-.769 4.078-.701 6.018 0 8.9 3.814 8.9 10.679v22.504h8.857Zm49.585-20.215v-20.215h-8.9v4.916c-1.495-1.929-3.428-3.473-5.639-4.505-2.211-1.032-4.637-1.522-7.075-1.428-5.62 0-11.01 2.232-14.984 6.206s-6.206 9.364-6.206 14.984c0 5.62 2.232 11.009 6.206 14.983s9.364 6.207 14.984 6.207c2.438.093 4.864-.397 7.075-1.429 2.211-1.031 4.144-2.576 5.639-4.505v4.916h8.815l.085-20.13Zm-32.76 0c.141-2.385.975-4.677 2.402-6.593 1.426-1.916 3.382-3.374 5.627-4.192 2.244-.819 4.679-.964 7.004-.416 2.325.547 4.44 1.763 6.083 3.497 1.644 1.733 2.744 3.91 3.166 6.262.422 2.351.147 4.775-.791 6.972-.938 2.197-2.499 4.072-4.489 5.393-1.99 1.322-4.323 2.033-6.712 2.045-1.687.04-3.363-.273-4.922-.919-1.559-.646-2.966-1.61-4.131-2.831-1.165-1.22-2.062-2.671-2.634-4.258-.572-1.588-.806-3.277-.688-4.96h.085Zm221.096-21.19c2.902-.008 5.779.539 8.476 1.61 2.574 1.031 4.921 2.558 6.908 4.493 1.96 1.917 3.517 4.208 4.577 6.738 2.214 5.434 2.214 11.518 0 16.952-1.059 2.53-2.616 4.822-4.577 6.738-1.987 1.935-4.334 3.462-6.908 4.493-5.589 2.171-11.788 2.171-17.376 0-2.562-1.03-4.896-2.557-6.866-4.493-1.942-1.924-3.483-4.214-4.534-6.738-2.21-5.435-2.21-11.517 0-16.952 1.051-2.524 2.592-4.814 4.534-6.738 1.97-1.936 4.304-3.463 6.866-4.493 2.794-1.158 5.79-1.748 8.815-1.737l.085.127Zm0 8.476c-1.726-.024-3.44.293-5.043.932-1.511.606-2.881 1.515-4.027 2.67-1.168 1.217-2.077 2.659-2.67 4.238-1.294 3.384-1.294 7.127 0 10.51.592 1.58 1.501 3.023 2.67 4.238 1.145 1.157 2.516 2.066 4.027 2.67 3.228 1.265 6.815 1.265 10.044 0 1.583-.585 3.026-1.494 4.238-2.67 1.171-1.214 2.08-2.657 2.67-4.238 1.294-3.383 1.294-7.126 0-10.51-.59-1.581-1.499-3.023-2.67-4.238-1.212-1.175-2.655-2.085-4.238-2.67-1.599-.732-3.329-1.135-5.086-1.186l.085.254Zm-140.447 12.714c0-12.714-7.883-21.19-19.198-21.19-5.62.079-10.979 2.387-14.897 6.416-3.918 4.03-6.075 9.451-5.996 15.071.078 5.619 2.386 10.978 6.416 14.896 4.029 3.919 9.45 6.075 15.07 5.997 6.034.206 11.932-1.815 16.571-5.679l-4.238-6.527c-3.347 2.684-7.493 4.176-11.782 4.238-2.914.251-5.81-.645-8.074-2.497-2.263-1.852-3.715-4.514-4.047-7.42h30.048c.127-1.059.127-2.118.127-3.305Zm-30.132-3.56c.164-2.69 1.363-5.213 3.346-7.038 1.983-1.825 4.596-2.812 7.291-2.752 1.319-.028 2.631.204 3.86.683 1.23.479 2.353 1.195 3.305 2.109.952.913 1.716 2.004 2.246 3.212.53 1.208.818 2.509.845 3.828l-20.893-.042Zm67.214-6.357c-3.87-2.229-8.248-3.425-12.714-3.475-4.831 0-7.713 1.78-7.713 4.746 0 2.967 3.051 3.476 6.866 3.984l4.238.593c8.815 1.272 14.155 5.001 14.155 12.121s-6.781 13.223-18.436 13.223c-6.246.166-12.381-1.676-17.503-5.256l4.238-6.865c3.89 2.885 8.637 4.378 13.477 4.238 6.018 0 9.239-1.78 9.239-4.916 0-2.289-2.288-3.56-7.12-4.238l-4.238-.593c-9.069-1.272-13.985-5.34-13.985-11.952 0-8.052 6.611-12.968 16.952-12.968 5.787-.194 11.509 1.277 16.486 4.238l-3.942 7.12Zm42.38-2.289h-14.367v18.266c0 4.238 1.441 6.781 5.849 6.781 2.751-.091 5.434-.878 7.798-2.288l2.542 7.543c-3.304 2.062-7.123 3.149-11.018 3.136-10.426 0-14.07-5.594-14.07-15.002V407.46h-8.222v-8.052h8.222v-12.29h8.899v12.29h14.367v8.052Zm30.471-9.069c2.138.008 4.26.381 6.273 1.102l-2.713 8.476c-1.751-.698-3.624-1.044-5.509-1.017-5.764 0-8.476 3.729-8.476 10.425v22.674h-8.815v-40.473h8.73v4.916c1.082-1.858 2.645-3.39 4.524-4.435 1.88-1.044 4.007-1.561 6.156-1.498l-.17-.17Zm60.943 35.599c.551-.006 1.098.094 1.61.297.487.199.932.486 1.314.847.372.366.674.797.89 1.272.214.495.325 1.029.325 1.568 0 .539-.111 1.073-.325 1.568-.216.475-.518.906-.89 1.272-.382.361-.827.648-1.314.847-.507.224-1.056.339-1.61.339-.804-.006-1.589-.24-2.264-.675-.676-.436-1.213-1.054-1.551-1.783-.212-.496-.321-1.029-.321-1.568 0-.539.109-1.072.321-1.568.216-.475.518-.906.89-1.272.382-.361.827-.648 1.314-.847.446-.177.919-.278 1.399-.297h.212Zm0 7.163c.423.002.841-.085 1.228-.255.365-.163.696-.393.975-.678.36-.362.625-.806.774-1.294.149-.488.177-1.005.081-1.506-.096-.501-.313-.971-.632-1.369s-.73-.713-1.198-.917c-.387-.169-.806-.255-1.228-.254-.423.002-.841.089-1.23.254-.38.157-.726.387-1.017.679-.53.578-.824 1.334-.824 2.119 0 .784.294 1.54.824 2.119.294.297.644.532 1.029.692.386.161.8.242 1.218.24v.17Zm.254-5.044c.395-.019.785.101 1.102.339.129.108.232.244.298.399.066.155.095.323.083.491.006.141-.017.282-.068.413-.051.131-.129.25-.229.35-.245.223-.559.358-.89.382l1.229 1.398h-.974l-1.145-1.398h-.381v1.398h-.805v-3.899l1.78.127Zm-.933.721v1.017h.933c.166.049.342.049.508 0 .03-.059.046-.125.046-.191s-.016-.131-.046-.191c.03-.059.046-.124.046-.19 0-.067-.016-.132-.046-.191-.166-.049-.342-.049-.508 0l-.933-.254ZM143.07 210.458c0 84.332 68.458 152.679 152.679 152.679 29.985 0 59.418-9.039 84.332-25.465-80.363-65.37-79.812-188.726 0-254.0969-24.914-16.5356-54.347-25.4649-84.332-25.4649C211.528 58 143.07 126.457 143.07 210.458Zm246.932 119.939c77.718-60.631 77.387-178.805 0-239.7667-77.387 60.9617-77.717 179.2457 0 239.7667Zm246.932-119.939C636.934 126.457 568.477 58 484.255 58c-29.984 0-59.418 9.0395-84.331 25.4648 79.481 65.3712 80.693 189.0572 0 254.0972 24.913 16.536 54.567 25.465 84.331 25.465 84.222.11 152.679-68.237 152.679-152.569Z"/></svg>