<svg xmlns="http://www.w3.org/2000/svg" fill="none" viewBox="0 0 780 500"><path fill="#7673C0" d="M465.769 113.811H314.195v272.4h151.574v-272.4Z"/><path fill="#EB001B" d="M323.822 250.033c-.028-26.237 5.914-52.138 17.377-75.739 11.463-23.601 28.147-44.285 48.786-60.485-25.555-20.0835-56.245-32.5724-88.563-36.039-32.317-3.4667-64.958 2.2286-94.191 16.4352-29.234 14.2068-53.881 36.3508-71.124 63.9028-17.244 27.552-26.388 59.399-26.388 91.901 0 32.503 9.144 64.35 26.388 91.902 17.243 27.551 41.89 49.696 71.124 63.903 29.233 14.206 61.874 19.901 94.191 16.435 32.318-3.467 63.008-15.956 88.563-36.039-20.633-16.195-37.312-36.871-48.775-60.464-11.463-23.592-17.409-49.483-17.388-75.713Z"/><path fill="#00A1DF" d="M670.228 250.034c-.008 32.497-9.156 64.336-26.401 91.88-17.244 27.545-41.888 49.683-71.117 63.886-29.228 14.202-61.863 19.897-94.174 16.433-32.312-3.464-62.998-15.947-88.552-36.023 20.625-16.209 37.3-36.89 48.766-60.484 11.466-23.594 17.423-49.483 17.423-75.716 0-26.232-5.957-52.122-17.423-75.715-11.466-23.594-28.141-44.276-48.766-60.485 25.554-20.0898 56.244-32.5847 88.563-36.0564 32.32-3.4716 64.964 2.2201 94.201 16.4247 29.237 14.2047 53.888 36.3487 71.135 63.9007 17.246 27.553 26.392 59.402 26.393 91.907l-.048.048Z"/></svg>