<svg xmlns="http://www.w3.org/2000/svg" fill="none" viewBox="0 0 780 500"><path fill="#393939" d="M298.417 442.641c.16-2.708 1.108-5.309 2.727-7.485 1.62-2.176 3.841-3.831 6.389-4.76 2.548-.93 5.313-1.094 7.953-.473 2.64.622 5.041 2.002 6.907 3.971 1.866 1.968 3.115 4.44 3.594 7.11.479 2.67.167 5.421-.898 7.916s-2.837 4.623-5.096 6.124c-2.26 1.501-4.909 2.307-7.621 2.322-1.916.044-3.819-.311-5.589-1.044-1.77-.733-3.368-1.828-4.69-3.214-1.323-1.386-2.342-3.033-2.991-4.835-.65-1.803-.916-3.721-.781-5.632h.096ZM549.453 428.206c-1.96-.027-3.906.333-5.726 1.058-1.715.688-3.271 1.72-4.572 3.032-1.327 1.381-2.358 3.018-3.031 4.812-1.47 3.842-1.47 8.091 0 11.933.672 1.794 1.703 3.431 3.031 4.812 1.3 1.313 2.856 2.345 4.572 3.031 3.666 1.436 7.738 1.436 11.404 0 1.797-.664 3.436-1.697 4.812-3.031 1.33-1.379 2.362-3.017 3.031-4.812 1.47-3.842 1.47-8.091 0-11.933-.669-1.795-1.701-3.433-3.031-4.812-1.376-1.335-3.015-2.367-4.812-3.032-1.815-.831-3.779-1.289-5.774-1.347l.096.289ZM355.775 438.599c.186-3.054 1.547-5.918 3.799-7.991 2.252-2.072 5.219-3.192 8.278-3.124 1.498-.032 2.988.231 4.383.775 1.396.544 2.671 1.357 3.753 2.394 1.081 1.037 1.948 2.276 2.55 3.648.602 1.372.928 2.849.959 4.346l-23.722-.048ZM583.232 462.129v1.155h1.059c.188.056.389.056.577 0 .034-.067.052-.141.052-.216 0-.076-.018-.15-.052-.217.034-.067.052-.141.052-.216 0-.076-.018-.15-.052-.217-.188-.056-.389-.056-.577 0l-1.059-.289Z"/><path fill="#393939" fill-rule="evenodd" d="M584.002 467.037c.48.003.956-.095 1.395-.288.414-.185.79-.446 1.107-.77.408-.411.71-.915.879-1.47.169-.553.201-1.141.092-1.709-.109-.569-.356-1.103-.718-1.555-.362-.452-.828-.809-1.36-1.04-.44-.192-.915-.291-1.395-.289-.48.002-.954.101-1.395.289-.433.177-.825.439-1.155.769-.602.657-.936 1.516-.936 2.406 0 .891.334 1.75.936 2.406.333.338.73.605 1.168.787.438.182.908.274 1.382.272v.192Zm.289-5.726c.449-.021.892.115 1.251.385.147.122.263.277.339.453.075.176.107.367.094.558.007.16-.02.319-.078.468-.058.149-.146.285-.259.398-.279.253-.635.406-1.01.433l1.395 1.588h-1.107l-1.299-1.588h-.433v1.588h-.914v-4.427l2.021.144Z" clip-rule="evenodd"/><path fill="#393939" fill-rule="evenodd" d="M736.992 0H41.512C18.595 0 0 18.994 0 42.426v414.65c0 23.437 18.585 42.426 41.512 42.426h695.48c22.917 0 41.512-18.994 41.512-42.426V42.426C778.503 18.99 759.918 0 736.992 0ZM279.314 465.594v-28.871c.168-2.422-.182-4.852-1.026-7.128-.845-2.276-2.165-4.346-3.872-6.071-1.708-1.726-3.763-3.068-6.03-3.937-2.267-.868-4.693-1.244-7.117-1.101-3.18-.209-6.358.44-9.202 1.879-2.844 1.439-5.249 3.615-6.965 6.301-1.565-2.606-3.803-4.74-6.479-6.18-2.676-1.44-5.691-2.131-8.727-2-2.646-.134-5.282.426-7.645 1.625-2.364 1.198-4.373 2.993-5.828 5.207v-5.678h-10.009v45.954h10.105v-25.455c-.224-1.575-.095-3.179.377-4.698.473-1.519 1.277-2.913 2.355-4.083 1.077-1.17 2.402-2.085 3.876-2.68 1.475-.596 3.064-.855 4.652-.761 6.64 0 10.008 4.331 10.008 12.126v25.551h10.105v-25.455c-.206-1.571-.064-3.169.415-4.68.479-1.511 1.284-2.898 2.357-4.064 1.074-1.166 2.391-2.081 3.858-2.682 1.466-.601 3.047-.873 4.63-.796 6.833 0 10.105 4.331 10.105 12.126v25.551h10.057Zm56.299-22.953v-22.952h-10.105v5.581c-1.697-2.19-3.892-3.943-6.403-5.115-2.51-1.171-5.264-1.727-8.033-1.621-6.381 0-12.5 2.535-17.012 7.047-4.512 4.512-7.047 10.631-7.047 17.012s2.535 12.501 7.047 17.013c4.512 4.512 10.631 7.047 17.012 7.047 2.769.106 5.523-.45 8.033-1.622 2.511-1.172 4.706-2.925 6.403-5.115v5.582h10.009l.096-22.857Zm213.84-24.059c3.295-.009 6.561.612 9.624 1.828 2.923 1.171 5.587 2.904 7.843 5.101 2.226 2.177 3.993 4.779 5.197 7.651 2.514 6.169 2.514 13.078 0 19.247-1.202 2.873-2.97 5.475-5.197 7.651-2.256 2.197-4.92 3.93-7.843 5.101-6.346 2.465-13.384 2.465-19.729 0-2.91-1.17-5.559-2.903-7.795-5.101-2.205-2.185-3.955-4.785-5.149-7.651-2.509-6.17-2.509-13.077 0-19.247 1.194-2.866 2.944-5.466 5.149-7.651 2.236-2.198 4.885-3.931 7.795-5.101 3.172-1.315 6.574-1.985 10.009-1.973l.096.145Zm-159.466 24.059c0-14.435-8.95-24.059-21.798-24.059-6.381.089-12.465 2.71-16.914 7.285-4.448 4.575-6.897 10.73-6.808 17.111.089 6.381 2.71 12.465 7.285 16.914 4.575 4.449 10.73 6.898 17.111 6.809 6.85.234 13.548-2.061 18.814-6.448l-4.811-7.411c-3.8 3.048-8.507 4.741-13.378 4.812-3.308.285-6.597-.732-9.167-2.835-2.57-2.103-4.218-5.125-4.594-8.425h34.116c.144-1.203.144-2.405.144-3.753Zm42.104-11.26c-4.394-2.53-9.365-3.889-14.436-3.945-5.485 0-8.757 2.021-8.757 5.389 0 3.368 3.464 3.946 7.795 4.523l4.812.674c10.009 1.443 16.072 5.678 16.072 13.762s-7.699 15.013-20.932 15.013c-7.092.189-14.058-1.903-19.873-5.967l4.812-7.795c4.416 3.276 9.805 4.971 15.302 4.812 6.832 0 10.489-2.021 10.489-5.582 0-2.598-2.598-4.042-8.084-4.812l-4.811-.673c-10.298-1.444-15.88-6.064-15.88-13.57 0-9.143 7.507-14.724 19.248-14.724 6.571-.221 13.068 1.45 18.718 4.812l-4.475 8.083Zm48.119-2.598h-16.312v20.739c0 4.812 1.636 7.699 6.64 7.699 3.123-.103 6.17-.997 8.854-2.598l2.887 8.565c-3.752 2.341-8.089 3.576-12.511 3.561-11.837 0-15.975-6.352-15.975-17.034v-20.932h-9.335v-9.143h9.335v-13.954h10.105v13.954h16.312v9.143Zm34.597-10.297c2.428.009 4.836.432 7.122 1.251l-3.08 9.624c-1.989-.793-4.114-1.186-6.255-1.155-6.544 0-9.624 4.234-9.624 11.837v25.743h-10.009v-45.953h9.913v5.582c1.228-2.11 3.003-3.85 5.137-5.035 2.134-1.186 4.549-1.774 6.989-1.702l-.193-.192Zm69.195 40.419c.626-.007 1.247.107 1.829.337.552.226 1.058.552 1.491.963.423.414.766.904 1.011 1.443.243.562.369 1.168.369 1.781 0 .612-.126 1.218-.369 1.78-.245.539-.588 1.029-1.011 1.444-.433.41-.939.736-1.491.962-.576.254-1.199.385-1.829.385-.912-.007-1.804-.273-2.57-.767-.767-.494-1.377-1.196-1.761-2.024-.241-.563-.365-1.168-.365-1.78 0-.613.124-1.218.365-1.781.246-.539.588-1.029 1.011-1.443.433-.411.939-.737 1.492-.963.506-.201 1.043-.315 1.587-.337h.241Zm-301.015-80.447c-95.627 0-173.354-77.603-173.354-173.354 0-95.376 77.727-173.104 173.354-172.9788 34.045 0 67.464 10.1383 95.751 28.9131-90.619 74.2227-91.245 214.2827 0 288.5057-28.287 18.65-61.706 28.914-95.751 28.914Zm107.016-37.175c88.242-68.84 87.866-203.018 0-272.2341-87.866 69.2161-88.241 203.5191 0 272.2341ZM497.019 32c95.627 0 173.354 77.728 173.354 173.104 0 95.751-77.727 173.354-173.354 173.228-33.794 0-67.464-10.138-95.751-28.913 91.621-73.847 90.244-214.283 0-288.5058C429.555 42.2636 462.974 32 497.019 32Z" clip-rule="evenodd"/></svg>