<svg xmlns="http://www.w3.org/2000/svg" fill="none" viewBox="0 0 780 500"><path fill="#393939" d="m654.223 279.812-16.625-77.705-27.913 77.705h44.538Z"/><path fill="#393939" fill-rule="evenodd" d="M41.458 0h694.58c22.897 0 41.459 18.99 41.459 42.426v414.65c0 23.432-18.571 42.426-41.459 42.426H41.458C18.562 499.502 0 480.513 0 457.076V42.426C0 18.994 18.571 0 41.458 0Zm358.426 212.007c0-44.863 41.854-69.145 88.689-69.145 29.995 0 51.264 9.178 51.264 9.178l-9.459 43.725s-19.547-9.9-43.506-9.9c-21.235 0-31.47 9.341-31.47 17.867 0 9.575 11.875 15.878 26.145 23.452 21.482 11.402 48.393 25.685 48.393 58.351 0 45.631-40.292 71.105-91.498 71.105-34.547 0-60.569-11.499-60.569-11.499l9.666-45.271s22.588 13.612 52.811 13.612c21.295 0 33.764-9.742 33.764-20.625 0-10.721-12.771-17.606-27.719-25.665-21.089-11.37-46.511-25.076-46.511-55.185ZM58.9453 152.762l1.1341-6.6H149.49c12.911 0 23.459 7.792 25.542 21.45l22.707 119.341 55.646-140.791h56.084l-86.601 207.075h-56.213l-41.934-161.7c-3.849-14.918-5.476-19.722-28.326-27.972-17.7462-7.196-37.4497-10.803-37.4497-10.803ZM288.025 353.237l43.996-207.075h53.327l-43.842 207.075h-53.481Zm317.536-188.1c5.014-12.068 11.847-18.975 24.743-18.975h45.079l43.172 207.075h-49.487l-6.598-31.35h-68.327l-10.851 31.35h-56.084l78.353-188.1Z" clip-rule="evenodd"/></svg>